<?xml version="1.0" encoding="UTF-8"?>
<svg id="Layer_2" xmlns="http://www.w3.org/2000/svg" viewBox="0 0 1078 1070.16">
  <defs>
    <style>.cls-1{fill:#fff;}</style>
  </defs>
  
  <!-- Background rectangle -->
  <rect width="1078" height="1070.16" fill="#414141"/>
  
  <g id="Layer_1-2">
    <g>
      <g>
        <path class="cls-1" d="M551.14,0C364.25,0,209.58,76.8,112.87,201.81l212.32,122.59c53.03-60.05,131.3-95.96,225.95-95.96,133.75,0,236.65,69.98,279.87,179.06h246.99C1028.6,166.7,826.91,0,551.14,0Z"/>
        <path class="cls-1" d="M551.14,1070.16c-186.9,0-341.56-76.8-438.27-201.81l212.32-122.59c53.03,60.05,131.3,95.96,225.95,95.96,133.75,0,236.65-69.98,279.87-179.06h246.99c-49.4,240.79-251.09,407.49-526.86,407.49Z"/>
      </g>
      <path d="M0,534.34c0-94.67,67.91-164.65,162.59-164.65s162.59,69.98,162.59,164.65-67.91,162.59-162.59,162.59S0,629.02,0,534.34Z" fill="#EDA933"/>
    </g>
  </g>
</svg>
